<svg width="68" height="54" viewBox="0 0 68 54" version="1.1" xmlns="http://www.w3.org/2000/svg" xmlns:xlink="http://www.w3.org/1999/xlink">
<title>books-stack-of-three</title>
<desc>Created using Figma</desc>
<g id="Canvas" transform="translate(-296 1613)">
<g id="books-stack-of-three">
<g id="Group">
<g id="Group">
<g id="Vector">
<use xlink:href="#path0_fill" transform="translate(296 -1613)" fill="#AFA376"/>
</g>
</g>
</g>
</g>
</g>
<defs>
<path id="path0_fill" d="M 63.1489 16.3132C 62.8739 14.2102 62.8352 10.5883 64.7552 9.37206C 64.7894 9.34976 64.815 9.31756 64.8451 9.28989C 66.4148 8.77913 67.5011 8.06233 66.6483 7.09779L 43.4929 -1.19707e-07L 5.99892 5.30311C 5.99892 5.30311 1.70539 5.92742 2.08894 12.7135C 2.29716 16.4069 3.43583 18.2208 4.43164 19.1135L 1.35492 20.0567C 0.500964 21.0213 1.58708 21.7383 3.157 22.2482C 3.18683 22.2767 3.21199 22.3087 3.2469 22.331C 5.16566 23.5482 5.12873 27.1698 4.85274 29.2731C -2.04041 31.2644 0.433995 31.9132 0.433995 31.9132L 1.94608 32.2855C 0.882485 33.2632 -0.1738 35.1174 0.0240633 38.6338C 0.407816 45.4187 3.93445 45.8869 3.93445 45.8869L 28.4703 54L 65.5042 44.8744C 65.5042 44.8744 67.9794 44.2245 61.0844 42.2331C 60.8072 40.1331 60.7687 36.5119 62.6919 35.2916C 62.7272 35.2699 62.753 35.2371 62.7816 35.2098C 64.3515 34.6991 65.4368 33.9829 64.5839 33.0184L 62.9742 32.5239C 64.0477 31.8653 65.6603 30.1442 65.9129 25.6732C 66.0872 22.5979 65.2986 20.7969 64.3858 19.7365L 67.5674 18.9533C 67.5676 18.9545 70.0429 18.3046 63.1489 16.3132ZM 32.1723 16.2262L 38.4 14.9242L 59.4461 10.5243L 62.5817 9.86816C 61.5798 11.7337 61.6218 14.2866 61.7876 15.9275C 61.8239 16.2987 61.8657 16.6377 61.9063 16.8953L 58.4743 17.7635L 31.9105 24.4861L 32.1723 16.2262ZM 5.42055 22.8292L 8.55572 23.4853L 28.7676 27.7122L 30.5333 28.0801L 35.8286 29.1873L 36.0898 37.4474L 8.78788 30.5372L 6.09633 29.8568C 6.1359 29.5987 6.17771 29.2601 6.21566 28.8879C 6.38044 27.2483 6.42326 24.6947 5.42055 22.8292ZM 4.20253 12.3869C 4.16458 10.5819 4.48075 9.27647 5.1198 8.61294C 5.52649 8.1893 6.00643 8.10115 6.33559 8.10115C 6.50951 8.10115 6.63472 8.12571 6.64325 8.12571L 22.7984 13.4837L 30.8585 16.1571L 30.594 24.4748L 7.98242 18.0257L 6.78916 17.6856C 6.74532 17.673 6.68586 17.6644 6.64 17.6623C 6.54685 17.6555 4.3113 17.4462 4.20253 12.3869ZM 28.5287 50.3964L 4.72448 43.607C 4.68044 43.594 4.62159 43.5854 4.57573 43.5831C 4.48096 43.5767 2.24439 43.3676 2.13623 38.3095C 2.09767 36.5022 2.41547 35.1981 3.0533 34.5339C 3.461 34.1103 3.94115 34.0221 4.2697 34.0221C 4.44402 34.0221 4.56883 34.0459 4.57796 34.0459C 4.57796 34.0459 4.57898 34.0459 4.57796 34.0459L 28.7915 42.0785L 28.5287 50.3964ZM 59.7211 41.8479C 59.7586 42.2203 59.8005 42.5587 59.841 42.8167L 29.8446 50.4082L 30.1068 42.1481L 36.5198 40.8067L 37.4669 41.0398L 41.0166 39.8661L 57.3796 36.4455L 60.5164 35.7889C 59.5135 37.6542 59.5551 40.2082 59.7211 41.8479ZM 61.3734 30.6221C 61.3188 30.6233 61.2642 30.6308 61.2129 30.6473L 58.9506 31.2916L 37.4092 37.4364L 37.1458 29.1187L 44.2133 26.7736L 61.3263 21.096C 61.3286 21.095 62.2266 20.892 62.8857 21.5739C 63.5237 22.2375 63.8403 23.5429 63.803 25.3479C 63.6914 30.4055 61.4548 30.6157 61.3734 30.6221Z"/>
</defs>
</svg>
