<svg width="57" height="48" viewBox="0 0 57 48" version="1.1" xmlns="http://www.w3.org/2000/svg" xmlns:xlink="http://www.w3.org/1999/xlink">
<title>github-character</title>
<desc>Created using Figma</desc>
<g id="Canvas" transform="translate(-1601 1608)">
<g id="github-character">
<g id="Group">
<g id="Group">
<g id="Vector">
<use xlink:href="#path0_fill" transform="translate(1601 -1608)" fill="#AFA376"/>
</g>
<g id="Vector">
<use xlink:href="#path1_fill" transform="translate(1614.15 -1581.82)" fill="#AFA376"/>
</g>
<g id="Vector">
<use xlink:href="#path2_fill" transform="translate(1636.08 -1581.82)" fill="#AFA376"/>
</g>
</g>
</g>
</g>
</g>
<defs>
<path id="path0_fill" d="M 52.3399 13.1593C 52.9566 11.3179 53.2653 9.40898 53.2653 7.4319C 53.2653 4.79548 52.6823 2.3181 51.5179 -8.74536e-08C 49.0749 -8.74536e-08 46.9169 0.443583 45.0438 1.32968C 43.1716 2.21601 41.0365 3.59093 38.6394 5.45446C 35.6253 4.7273 32.4273 4.36371 29.0482 4.36371C 25.3485 4.36371 21.8201 4.76168 18.4634 5.55703C 16.0201 3.64777 13.8621 2.24478 11.9895 1.34687C 10.1168 0.448957 7.9475 0.00011925 5.48098 0.00011925C 4.31635 2.31821 3.73409 4.79571 3.73409 7.43202C 3.73409 9.43214 4.0422 11.364 4.65889 13.2273C 1.55276 16.8411 0 21.3408 0 26.7272C 0 31.455 0.707633 35.2159 2.12374 38.0117C 2.87757 39.4883 3.85923 40.7952 5.06969 41.9319C 6.27968 43.0679 7.66135 43.989 9.21435 44.6937C 10.7676 45.3977 12.3315 45.9834 13.9074 46.4488C 15.4832 46.9145 17.2244 47.2558 19.1313 47.4708C 21.0381 47.6876 22.7223 47.8295 24.1837 47.8981C 25.6452 47.9655 27.2663 48 29.0481 48C 31.1487 48 33.0549 47.9484 34.7685 47.8468C 36.4814 47.7447 38.4391 47.4942 40.6431 47.0974C 42.8467 46.6995 44.788 46.1593 46.4668 45.4777C 48.1453 44.7962 49.7557 43.8186 51.2971 42.5463C 52.8384 41.2731 54.0427 39.762 54.9109 38.0118C 56.3032 35.1935 57 31.4318 57 26.7274C 56.9992 21.3181 55.4463 16.7956 52.3399 13.1593ZM 48.2308 37.9597C 47.4999 39.4488 46.5748 40.6182 45.456 41.4714C 44.3367 42.3238 42.9439 43.0054 41.2771 43.5174C 39.6094 44.0285 38.0116 44.3636 36.4814 44.5221C 34.9507 44.6814 33.25 44.7607 31.3769 44.7607L 25.622 44.7607C 23.7495 44.7607 22.0479 44.6814 20.518 44.5221C 18.988 44.3636 17.3896 44.0285 15.7223 43.5174C 14.0557 43.0054 12.6629 42.3238 11.5436 41.4714C 10.4243 40.6181 9.49954 39.4488 8.76875 37.9597C 8.03808 36.4707 7.67263 34.7268 7.67263 32.727C 7.67263 29.999 8.46053 27.6805 10.0364 25.7724C 11.6122 23.8631 13.7473 22.9088 16.4417 22.9088C 17.4241 22.9088 19.6507 23.1473 23.1218 23.6247C 24.7431 23.8746 26.5359 23.9996 28.4996 23.9996C 30.4639 23.9996 32.2565 23.8749 33.8775 23.6247C 37.3949 23.1472 39.6207 22.9088 40.5577 22.9088C 43.252 22.9088 45.387 23.8636 46.9628 25.7724C 48.5388 27.6814 49.3262 29.999 49.3262 32.727C 49.3262 34.7271 48.9607 36.472 48.2308 37.9597Z"/>
<path id="path1_fill" d="M 6.86829 1.15964C 6.1717 0.386507 5.3442 -1.60332e-07 4.38485 -1.60332e-07C 3.42527 -1.60332e-07 2.59766 0.386985 1.90118 1.15964C 1.20506 1.93194 0.713752 2.79583 0.428443 3.74938C 0.142534 4.70485 -2.63625e-07 5.63643 -2.63625e-07 6.54605C -2.63625e-07 7.45471 0.142894 8.38641 0.428443 9.34176C 0.713392 10.2959 1.20446 11.1593 1.90118 11.9315C 2.59801 12.7046 3.42527 13.0913 4.38485 13.0913C 5.3442 13.0913 6.17206 12.7039 6.86829 11.9315C 7.56465 11.1592 8.05572 10.2959 8.34103 9.34176C 8.62658 8.38641 8.76947 7.45471 8.76947 6.54605C 8.76947 5.63727 8.62694 4.70485 8.34103 3.74938C 8.0556 2.79619 7.56501 1.93266 6.86829 1.15964Z"/>
<path id="path2_fill" d="M 6.86817 1.15964C 6.17182 0.386507 5.34408 -1.60332e-07 4.38497 -1.60332e-07C 3.42623 -1.60332e-07 2.59802 0.386985 1.9013 1.15964C 1.20494 1.93194 0.713993 2.79583 0.429044 3.74938C 0.142895 4.70485 -1.49387e-06 5.63643 -1.49387e-06 6.54605C -1.49387e-06 7.45471 0.142895 8.38641 0.429044 9.34176C 0.713993 10.2959 1.20506 11.1593 1.9013 11.9315C 2.59814 12.7046 3.42623 13.0913 4.38497 13.0913C 5.34408 13.0913 6.17194 12.7039 6.86817 11.9315C 7.56417 11.1592 8.05548 10.2959 8.34127 9.34176C 8.6267 8.38641 8.76947 7.45471 8.76947 6.54605C 8.76947 5.63727 8.6267 4.70485 8.34127 3.74938C 8.0556 2.79619 7.56417 1.93266 6.86817 1.15964Z"/>
</defs>
</svg>
