<svg width="29" height="29" viewBox="0 0 29 29" version="1.1" xmlns="http://www.w3.org/2000/svg" xmlns:xlink="http://www.w3.org/1999/xlink">
<title>Vector</title>
<desc>Created using Figma</desc>
<g id="Canvas" transform="translate(-1591 199)">
<g id="Vector">
<use xlink:href="#path0_fill" transform="translate(1591 -199)" fill="#878787"/>
</g>
</g>
<defs>
<path id="path0_fill" d="M 27.6187 1.38095C 25.7763 -0.460317 22.7797 -0.460317 20.9374 1.38095L 2.00876 20.3091C 1.99983 20.318 1.99458 20.329 1.98671 20.3385C 1.97569 20.3511 1.96624 20.3647 1.95627 20.3784C 1.92845 20.4172 1.90693 20.4587 1.89066 20.5038C 1.88593 20.5175 1.87911 20.5295 1.87543 20.5432C 1.87386 20.5484 1.87071 20.5537 1.86913 20.5589L 0.0136472 28.3534C 0.0052489 28.3885 0.00314934 28.4242 0.00209956 28.4594C 0.00209956 28.4662 0 28.4725 0 28.4793C 0.00052489 28.5392 0.0136471 28.5974 0.0341179 28.6536C 0.0388419 28.6667 0.0440908 28.6782 0.0498646 28.6908C 0.0755842 28.747 0.107603 28.8011 0.152743 28.8462C 0.202608 28.8961 0.261395 28.9344 0.324907 28.9606C 0.388419 28.9869 0.45613 29 0.523841 29C 0.564257 29 0.605199 28.9953 0.64509 28.9858L 8.43971 27.1304C 8.45389 27.1272 8.46648 27.1194 8.48013 27.1146C 8.49798 27.1089 8.51477 27.102 8.53209 27.0942C 8.56989 27.0768 8.60505 27.0553 8.6376 27.0296C 8.65019 27.0196 8.66332 27.0123 8.67539 27.0013C 8.67959 26.9971 8.68484 26.995 8.68904 26.9908L 27.6182 8.06212C 29.4605 6.2198 29.4605 3.22275 27.6187 1.38095ZM 26.8765 2.12313C 28.1824 3.42955 28.2937 5.48077 27.2177 6.91893L 22.0806 1.78196C 23.5193 0.70596 25.5706 0.817234 26.8765 2.12313ZM 24.2783 9.91756L 19.0819 4.72127L 19.8241 3.9791L 25.0205 9.17538L 24.2783 9.91756ZM 2.60398 26.395C 2.39875 26.1898 2.06702 26.1898 1.86179 26.395L 1.46444 26.7924L 2.80501 21.1615L 5.12608 20.9038L 4.82742 23.5922C 4.82532 23.6121 4.83267 23.6305 4.83267 23.6499C 4.83267 23.6699 4.82532 23.6877 4.82742 23.7077C 4.82952 23.725 4.83844 23.7392 4.84211 23.7559C 4.84841 23.7864 4.85734 23.8142 4.86836 23.8426C 4.88201 23.8767 4.89828 23.9076 4.91822 23.9376C 4.93449 23.9617 4.95077 23.9832 4.97071 24.0042C 4.99591 24.031 5.0232 24.0536 5.05312 24.0746C 5.07674 24.0908 5.09931 24.106 5.12556 24.1186C 5.1602 24.1349 5.19642 24.1444 5.23421 24.1533C 5.25415 24.158 5.27042 24.169 5.2909 24.1717C 5.30979 24.1738 5.32869 24.1748 5.34811 24.1748L 5.34863 24.1748L 5.34916 24.1748L 5.34968 24.1748L 5.35021 24.1748C 5.3691 24.1748 5.38853 24.1738 5.40742 24.1717L 8.09591 23.873L 7.83819 26.194L 2.20664 27.5345L 2.60398 27.1372C 2.80869 26.9325 2.80869 26.6003 2.60398 26.395ZM 9.19136 23.5192L 20.9374 11.773C 21.1426 11.5678 21.1426 11.2361 20.9374 11.0308C 20.7321 10.8256 20.4004 10.8256 20.1952 11.0308L 8.44916 22.7771L 5.94386 23.0552L 6.22205 20.55L 17.9691 8.80429C 18.1743 8.59907 18.1743 8.26734 17.9691 8.06212C 17.7639 7.85689 17.4321 7.85689 17.2269 8.06212L 5.47986 19.8078L 3.80913 19.9936L 18.3397 5.46345L 23.5361 10.6597L 9.00554 25.1899L 9.19136 23.5192ZM 25.7627 8.4332L 20.5663 3.23692L 21.309 2.49422L 26.5054 7.6905L 25.7627 8.4332Z"/>
</defs>
</svg>
